# xmcd CD database file
#
# Track frame offsets:
#	150
#	30771
#	67226
#	92578
#	130042
#	165670
#
# Disc length: 2446 seconds
#
# Revision: 0
# Processed by: cddbd v1.5.1PL0 Copyright (c) Steve Scherf et al.
# Submitted via: CDex 1.51
#
DISCID=42098c06
DTITLE=Jan Ptaszyn Wróblewski - Flyin' Lady
DYEAR=1960
DGENRE=Jazz
TTITLE0=Pastuszek Stomp
TTITLE1=Grzmot nad Ranem - Morning Thunder
TTITLE2=Bossa Nostra
TTITLE3=Pani Ptaszkowa - Flay' Lady
TTITLE4=Dlaczego Ma³pa... - Why the Monky
TTITLE5=Liche Chechcio³ Dana
EXTD=YEAR: 1960
EXTT0=
EXTT1=
EXTT2=
EXTT3=
EXTT4=
EXTT5=
PLAYORDER=
